<svg width="25" height="25" viewBox="0 0 25 25" fill="none" xmlns="http://www.w3.org/2000/svg">
<path d="M5.95178 2.40161H19.9518C20.6362 2.40161 21.2961 2.63968 21.8209 3.06958L22.0377 3.26587C22.591 3.8191 22.902 4.56942 22.902 5.35181V7.35181C22.902 8.21903 22.5281 8.99943 21.9313 9.53931L21.9147 9.55493V20.3167C21.9147 20.8338 21.7091 21.3299 21.3434 21.6956C20.9777 22.0612 20.4816 22.2668 19.9645 22.2668H12.3248V22.2659L12.3151 22.2678C12.1953 22.2904 12.0737 22.302 11.9518 22.302H9.95178L9.76917 22.2932C9.70862 22.2875 9.64832 22.2791 9.5885 22.2678L9.57874 22.3167L9.5885 22.2668H5.96252C5.44545 22.2668 4.94925 22.0612 4.58362 21.6956C4.21805 21.3299 4.01233 20.8337 4.01233 20.3167V9.47583L3.95959 9.52759C3.66356 9.25696 3.42501 8.92886 3.26038 8.56274C3.08924 8.18206 3.001 7.76919 3.00159 7.35181V5.35181C3.00159 4.6674 3.23966 4.00754 3.66956 3.48267L3.86584 3.26587C4.41908 2.71264 5.16939 2.40161 5.95178 2.40161ZM15.9186 9.55103C15.3783 10.0356 14.6775 10.303 13.9518 10.302H11.9518C11.1966 10.302 10.5061 10.018 9.98499 9.55103L9.95178 9.52075L9.91858 9.55103C9.37832 10.0356 8.67751 10.303 7.95178 10.302H5.91174V20.3665H8.00159V15.3518C8.00159 14.8346 8.20718 14.3386 8.57288 13.9729C8.93857 13.6072 9.43461 13.4016 9.95178 13.4016H11.9518C12.469 13.4016 12.965 13.6072 13.3307 13.9729C13.6964 14.3386 13.902 14.8346 13.902 15.3518V20.3665H20.0153V10.302H17.9518C17.1966 10.302 16.5061 10.018 15.985 9.55103L15.9518 9.52075L15.9186 9.55103ZM9.90198 20.3665H11.9518V20.3176H12.0016V15.302H9.90198V20.3665ZM16.9518 13.4016H17.9518C18.2037 13.4016 18.4455 13.5018 18.6237 13.6799C18.8018 13.8581 18.902 14.0999 18.902 14.3518V17.3518C18.902 17.6038 18.8018 17.8455 18.6237 18.0237C18.4455 18.2018 18.2037 18.302 17.9518 18.302H16.9518C16.6998 18.302 16.4581 18.2018 16.2799 18.0237C16.1017 17.8455 16.0016 17.6038 16.0016 17.3518V14.3518C16.0016 14.0999 16.1017 13.8581 16.2799 13.6799C16.4581 13.5018 16.6998 13.4016 16.9518 13.4016ZM5.95178 4.302C5.67331 4.302 5.40651 4.41271 5.20959 4.60962C5.01268 4.80653 4.90198 5.07333 4.90198 5.35181V7.35181C4.90198 7.63028 5.01268 7.89708 5.20959 8.09399C5.40651 8.29091 5.67331 8.40161 5.95178 8.40161H7.95178C8.23026 8.40161 8.49706 8.29091 8.69397 8.09399C8.89088 7.89708 9.00159 7.63028 9.00159 7.35181V4.302H5.95178ZM10.902 7.35181C10.902 7.63028 11.0127 7.89708 11.2096 8.09399C11.4065 8.29091 11.6733 8.40161 11.9518 8.40161H13.9518C14.2303 8.40161 14.4971 8.29091 14.694 8.09399C14.8909 7.89708 15.0016 7.63028 15.0016 7.35181V4.302H10.902V7.35181ZM16.902 7.35181C16.902 7.63028 17.0127 7.89708 17.2096 8.09399C17.4065 8.29091 17.6733 8.40161 17.9518 8.40161H19.9518C20.2303 8.40161 20.4971 8.29091 20.694 8.09399C20.8909 7.89708 21.0016 7.63028 21.0016 7.35181V5.35181C21.0016 5.07333 20.8909 4.80653 20.694 4.60962C20.4971 4.41271 20.2303 4.302 19.9518 4.302H16.902V7.35181Z" fill="#181725" stroke="white" stroke-width="0.1"/>
</svg>
